<svg class="darkmode-switch" viewBox="0 0 160 160" xmlns="http://www.w3.org/2000/svg" aria-hidden="true" focusable="false">
	<g class="dms-auto">
		<rect fill="#eee" width="160" height="160" />
		<path fill="#111" d="M 56 0 L 104 160 L 0 160 L 0 0 L 56 0 Z"/>
	</g>
	<circle fill="#111" cx="80" cy="80" r="29" />
	<g class="dms-moon">
		<path fill="#ddd" d="M 91 106 C 76 112 60 105 53 91 C 47 76 54 59 69 53 C 74 51 79 51 84 51 C 78 59 76 70 80 80 C 84 90 93 96 103 97 C 100 101 96 104 91 106 Z M 73 100 C 73 100 73 100 73 99 C 74 99 73 97 72 96 C 70 94 68 94 68 95 C 67 96 68 98 69 99 C 71 100 72 100 73 100 Z M 62 91 C 64 90 64 88 63 85 C 62 82 60 81 58 81 C 57 82 57 84 58 87 C 59 90 61 91 62 91 Z"/>
		<path fill="#eee" d="M 115 52 L 113 55 L 109 56 L 112 59 L 111 63 L 115 61 L 119 63 L 118 59 L 121 56 L 117 55 Z M 59 34 L 57 37 L 53 38 L 56 41 L 55 45 L 59 43 L 63 45 L 62 41 L 65 38 L 61 37 Z M 41 97 L 39 100 L 35 101 L 38 104 L 37 108 L 41 106 L 45 108 L 44 104 L 47 101 L 43 100 Z"/>
	</g>
	<g class="dms-sun">
		<path d="M 80 130 C 79 130 78 129 78 128 L 78 117 C 78 116 79 115 80 115 C 81 115 82 116 82 117 L 82 128 C 82 129 81 130 80 130 Z M 46 116 C 46 116 45 116 45 115 C 44 114 44 113 45 112 L 53 105 C 53 104 55 104 55 105 C 56 105 56 107 55 107 L 47 115 C 47 116 47 116 46 116 Z M 114 116 C 113 116 113 116 113 115 L 105 107 C 104 107 104 105 105 105 C 105 104 107 104 107 105 L 115 112 C 116 113 116 114 115 115 C 115 116 114 116 114 116 Z M 32 82 C 31 82 30 81 30 80 C 30 79 31 78 32 78 L 43 78 C 44 78 45 79 45 80 C 45 81 44 82 43 82 L 32 82 Z M 117 82 C 116 82 115 81 115 80 C 115 79 116 78 117 78 L 128 78 C 129 78 130 79 130 80 C 130 81 129 82 128 82 L 117 82 Z M 54 56 C 54 56 53 56 53 55 L 45 47 C 44 47 44 45 45 45 C 45 44 47 44 47 45 L 55 53 C 56 53 56 55 55 55 C 55 56 55 56 54 56 Z M 106 56 C 105 56 105 56 105 55 C 104 55 104 53 105 53 L 113 45 C 113 44 115 44 115 45 C 116 45 116 47 115 47 L 107 55 C 107 56 106 56 106 56 Z M 80 45 C 79 45 78 44 78 43 L 78 32 C 78 31 79 30 80 30 C 81 30 82 31 82 32 L 82 43 C 82 44 81 45 80 45 Z"/>
	</g>
</svg>
