<svg id="logo" viewBox="0 0 486 177" xmlns="http://www.w3.org/2000/svg" aria-hidden="true" focusable="false">
	<circle class="lm" cx="30" cy="25" r="10" />
	<circle class="lm" cx="63" cy="25" r="10" />
	<circle class="lm" cx="97" cy="25" r="10" />
	<rect class="lm" width="486" height="5" />
	<rect class="lbg" fill="#203f00" y="45" width="486" height="132" />
	<path class="green" fill="#1eb100" d="M 306 157 L 306 157 L 306 141 L 363 71 L 367 71 L 367 86 L 310 156 Z M 208 157 C 205 157 202 156 200 155 C 198 153 196 151 194 149 C 193 147 192 144 192 141 L 192 104 C 192 101 193 98 194 95 C 196 93 198 91 200 90 C 202 88 205 87 208 87 L 248 87 L 248 65 L 263 65 L 263 157 L 208 157 Z M 209 143 L 246 143 C 247 143 247 143 248 142 C 248 142 248 141 248 140 L 248 104 C 248 103 248 103 248 102 C 247 102 247 102 246 102 L 209 102 C 208 102 207 102 207 102 C 207 103 206 103 206 104 L 206 140 C 206 141 207 142 207 142 C 207 143 208 143 209 143 Z M 128 157 C 125 157 122 156 120 155 C 118 153 116 151 114 149 C 113 147 112 144 112 141 L 112 104 C 112 101 113 98 114 95 C 116 93 118 91 120 90 C 122 88 125 87 128 87 L 182 87 L 182 102 L 128 102 C 128 102 127 102 127 102 C 126 103 126 103 126 104 L 126 140 C 126 141 126 142 127 142 C 127 143 128 143 128 143 L 183 143 L 183 157 L 128 157 Z M 20 157 L 20 157 L 20 141 L 53 122 L 20 103 L 20 86 L 70 115 L 70 129 Z"/>
	<rect id="cursor" class="green" fill="#1eb10080" x="410" y="65" width="56" height="92" />
</svg>
