<svg width="250" height="250" viewBox="0 0 250 250" xmlns="http://www.w3.org/2000/svg">
    <style>
        .d { fill: #111; }
        .l { fill: #eee; }
        @media (prefers-color-scheme: dark) {
        .d { fill: #eee; }
        .l { fill: #111; }
        }
        @media ( prefers-contrast: more ) {
        .g { fill: #66ff47; }
        }
    </style>
    <rect fill="#203f00" width="250" height="250" />
    <path class="g" fill="#1eb100" d="M 178 174 C 175 174 173 173 171 172 C 169 171 167 169 166 167 C 165 165 164 163 164 161 L 164 129 C 164 127 165 125 166 123 C 167 121 169 119 171 118 C 173 117 175 116 178 116 L 211 116 L 211 97 L 223 97 L 223 174 L 178 174 Z M 178 162 L 209 162 C 210 162 210 162 211 162 C 211 161 211 161 211 161 L 211 130 C 211 129 211 129 211 128 C 211 128 210 128 209 128 L 178 128 C 177 128 177 128 177 128 C 176 128 176 129 176 130 L 176 161 C 176 161 176 162 177 162 C 177 162 178 162 178 162 Z M 111 174 C 108 174 106 173 104 172 C 102 171 100 169 99 167 C 98 165 97 163 97 161 L 97 129 C 97 127 98 125 99 123 C 100 121 102 119 104 118 C 106 117 108 116 111 116 L 156 116 L 156 128 L 111 128 C 111 128 110 128 110 128 C 109 128 109 129 109 130 L 109 161 C 109 161 109 162 110 162 C 110 162 111 162 111 162 L 156 162 L 156 174 L 111 174 Z M 21 174 L 21 174 L 21 161 L 48 145 L 21 129 L 21 115 L 63 139 L 63 150 Z"/>
    <rect class="l" fill="#eee" width="250" height="38" />
    <circle class="d" fill="#111" cx="30" cy="19" r="10" />
    <circle class="d" fill="#111" cx="64" cy="19" r="10" />
    <circle class="d" fill="#111" cx="98" cy="19" r="10" />
</svg>